<svg width="512" height="512" viewBox="0 0 512 512" fill="none" xmlns="http://www.w3.org/2000/svg">
  
  <rect width="512" height="512" rx="115" fill="#007AFF"></rect>
  
  
  <g transform="translate(256, 256)">
    
    <ellipse cx="0" cy="0" rx="80" ry="100" fill="white" opacity="0.95"></ellipse>
    
    
    <path d="M -40 -20 Q -100 -60 -120 -40 Q -100 -20 -60 0 Z" fill="white" opacity="0.9"></path>
    
    
    <path d="M 40 -20 Q 100 -60 120 -40 Q 100 -20 60 0 Z" fill="white" opacity="0.9"></path>
    
    
    <circle cx="0" cy="-60" r="40" fill="white"></circle>
    
    
    <path d="M 0 -60 L 20 -55 L 0 -50 Z" fill="#FFB340"></path>
    
    
    <circle cx="-10" cy="-65" r="5" fill="#007AFF"></circle>
    
    
    <path d="M 0 80 Q -30 120 -10 140 Q 0 120 0 100 Q 0 120 10 140 Q 30 120 0 80 Z" fill="white" opacity="0.85"></path>
  </g>
  
  
  <defs>
    <linearGradient id="shine" x1="0%" y1="0%" x2="0%" y2="100%">
      <stop offset="0%" style="stop-color:white;stop-opacity:0.2"></stop>
      <stop offset="100%" style="stop-color:white;stop-opacity:0"></stop>
    </linearGradient>
  </defs>
  <rect width="512" height="512" rx="115" fill="url(#shine)"></rect>
</svg>